<?xml version="1.0" encoding="UTF-8" standalone="no"?>
<!DOCTYPE svg PUBLIC "-//W3C//DTD SVG 1.1//EN" "http://www.w3.org/Graphics/SVG/1.1/DTD/svg11.dtd">
<!-- Created with Vectornator (http://vectornator.io/) -->
<svg height="100%" stroke-miterlimit="10" style="fill-rule:nonzero;clip-rule:evenodd;stroke-linecap:round;stroke-linejoin:round;" version="1.1" viewBox="0 0 2050.06 586.004" width="100%" xml:space="preserve" xmlns="http://www.w3.org/2000/svg" xmlns:vectornator="http://vectornator.io" xmlns:xlink="http://www.w3.org/1999/xlink">
<defs>
<linearGradient gradientTransform="matrix(102.695 283.432 -283.432 102.695 146.754 147.621)" gradientUnits="userSpaceOnUse" id="LinearGradient" x1="0" x2="1" y1="0" y2="0">
<stop offset="0" stop-color="#7ed321"/>
<stop offset="0.328964" stop-color="#6ebf28"/>
<stop offset="0.704453" stop-color="#337542"/>
<stop offset="1" stop-color="#003559"/>
</linearGradient>
</defs>
<g id="Ebene-1" vectornator:layerName="Ebene 1">
<g fill="#7ed321" opacity="1" stroke="none" vectornator:layerName="Text 23">
<path d="M562.03 404.595C559.124 407.501 555.582 408.954 551.404 408.954C547.226 408.954 543.684 407.501 540.778 404.595C537.872 401.688 536.419 398.146 536.419 393.969L536.419 225.586C536.419 221.408 537.963 217.775 541.05 214.688C544.138 211.6 547.771 210.056 551.949 210.056L641.317 210.056C644.768 210.056 647.675 211.236 650.036 213.598C652.397 215.959 653.578 218.865 653.578 222.317C653.578 225.768 652.397 228.674 650.036 231.035C647.675 233.397 644.768 234.577 641.317 234.577L568.842 234.577C567.207 234.577 566.39 235.304 566.39 236.757L566.39 291.522C566.39 293.157 567.207 293.974 568.842 293.974L636.413 293.974C639.682 293.974 642.452 295.11 644.723 297.38C646.993 299.651 648.129 302.421 648.129 305.69C648.129 308.96 646.993 311.73 644.723 314.001C642.452 316.271 639.682 317.406 636.413 317.406L568.842 317.406C567.207 317.406 566.39 318.224 566.39 319.859L566.39 393.969C566.39 398.146 564.936 401.688 562.03 404.595Z"/>
<path d="M724.146 235.667L724.146 301.331C724.146 302.966 724.963 303.783 726.598 303.783L740.494 303.783C779.002 303.783 798.256 290.705 798.256 264.548C798.256 253.468 794.124 245.158 785.859 239.618C777.594 234.078 764.289 231.308 745.943 231.308C739.041 231.308 732.502 231.853 726.326 232.943C724.873 233.306 724.146 234.214 724.146 235.667ZM719.787 404.595C716.88 407.501 713.338 408.954 709.161 408.954C704.983 408.954 701.441 407.501 698.535 404.595C695.628 401.688 694.175 398.146 694.175 393.969L694.175 226.948C694.175 222.407 695.628 218.457 698.535 215.096C701.441 211.736 705.164 209.874 709.706 209.511C723.147 208.058 736.135 207.331 748.668 207.331C774.824 207.331 794.533 212.145 807.792 221.772C821.052 231.399 827.682 244.749 827.682 261.824C827.682 275.629 824.186 287.39 817.192 297.108C810.199 306.826 800.618 313.592 788.448 317.406C788.266 317.406 788.175 317.497 788.175 317.679C788.175 318.042 788.266 318.224 788.448 318.224C796.258 323.491 803.433 334.208 809.972 350.374L827.41 394.514C828.863 397.965 828.5 401.234 826.32 404.322C824.14 407.41 821.234 408.954 817.601 408.954C812.878 408.954 808.61 407.637 804.795 405.003C800.981 402.37 798.256 398.873 796.621 394.514L779.456 350.374C775.642 340.566 771.419 334.254 766.787 331.438C762.155 328.623 753.391 327.215 740.494 327.215L726.598 327.215C724.963 327.215 724.146 328.032 724.146 329.667L724.146 393.969C724.146 398.146 722.693 401.688 719.787 404.595Z"/>
<path d="M877.543 408.954C873.365 408.954 869.733 407.41 866.645 404.322C863.557 401.234 862.013 397.602 862.013 393.424L862.013 225.586C862.013 221.408 863.557 217.775 866.645 214.688C869.733 211.6 873.365 210.056 877.543 210.056L969.636 210.056C973.087 210.056 975.993 211.236 978.355 213.598C980.716 215.959 981.897 218.865 981.897 222.317C981.897 225.768 980.716 228.674 978.355 231.035C975.993 233.397 973.087 234.577 969.636 234.577L894.436 234.577C892.801 234.577 891.984 235.304 891.984 236.757L891.984 288.798C891.984 290.432 892.801 291.25 894.436 291.25L964.732 291.25C968.001 291.25 970.771 292.385 973.042 294.656C975.312 296.926 976.448 299.696 976.448 302.966C976.448 306.235 975.312 309.005 973.042 311.276C970.771 313.546 968.001 314.682 964.732 314.682L894.436 314.682C892.801 314.682 891.984 315.499 891.984 317.134L891.984 381.98C891.984 383.615 892.801 384.432 894.436 384.432L969.636 384.432C973.087 384.432 975.993 385.613 978.355 387.974C980.716 390.336 981.897 393.242 981.897 396.693C981.897 400.145 980.716 403.051 978.355 405.412C975.993 407.773 973.087 408.954 969.636 408.954L877.543 408.954Z"/>
<path d="M1072.9 320.403C1052.19 313.319 1037.25 304.828 1028.08 294.928C1018.91 285.029 1014.32 273.086 1014.32 259.099C1014.32 243.115 1019.41 230.49 1029.58 221.227C1039.75 211.963 1053.74 207.331 1071.54 207.331C1088.25 207.331 1102.96 209.329 1115.68 213.325C1119.49 214.597 1122.62 217.003 1125.08 220.546C1127.53 224.088 1128.75 228.038 1128.75 232.398C1128.75 235.486 1127.39 237.847 1124.67 239.482C1121.94 241.117 1119.13 241.298 1116.22 240.027C1102.42 234.214 1088.43 231.308 1074.26 231.308C1064.45 231.308 1056.92 233.76 1051.65 238.664C1046.38 243.569 1043.75 250.38 1043.75 259.099C1043.75 266.183 1046.2 272.586 1051.1 278.308C1056.01 284.03 1063.27 288.525 1072.9 291.795C1096.88 299.787 1113.54 308.688 1122.9 318.496C1132.25 328.305 1136.93 340.747 1136.93 355.824C1136.93 374.17 1131.3 388.065 1120.04 397.511C1108.77 406.956 1092.15 411.679 1070.18 411.679C1055.83 411.679 1042.84 409.499 1031.21 405.14C1022.68 401.688 1018.41 394.968 1018.41 384.977C1018.41 381.889 1019.77 379.619 1022.49 378.166C1025.22 376.713 1027.94 376.713 1030.67 378.166C1041.93 384.16 1054.19 387.157 1067.45 387.157C1093.79 387.157 1106.96 376.713 1106.96 355.824C1106.96 347.831 1104.37 341.02 1099.19 335.389C1094.02 329.758 1085.25 324.763 1072.9 320.403Z"/>
<path d="M1200.41 404.595C1197.51 407.501 1193.96 408.954 1189.79 408.954C1185.61 408.954 1182.07 407.501 1179.16 404.595C1176.25 401.688 1174.8 398.146 1174.8 393.969L1174.8 225.041C1174.8 220.863 1176.25 217.321 1179.16 214.415C1182.07 211.509 1185.61 210.056 1189.79 210.056C1193.96 210.056 1197.51 211.509 1200.41 214.415C1203.32 217.321 1204.77 220.863 1204.77 225.041L1204.77 288.798C1204.77 290.432 1205.59 291.25 1207.22 291.25L1286.78 291.25C1288.42 291.25 1289.24 290.432 1289.24 288.798L1289.24 225.041C1289.24 220.863 1290.69 217.321 1293.6 214.415C1296.5 211.509 1300.04 210.056 1304.22 210.056C1308.4 210.056 1311.94 211.509 1314.85 214.415C1317.75 217.321 1319.21 220.863 1319.21 225.041L1319.21 393.969C1319.21 398.146 1317.75 401.688 1314.85 404.595C1311.94 407.501 1308.4 408.954 1304.22 408.954C1300.04 408.954 1296.5 407.501 1293.6 404.595C1290.69 401.688 1289.24 398.146 1289.24 393.969L1289.24 317.134C1289.24 315.499 1288.42 314.682 1286.78 314.682L1207.22 314.682C1205.59 314.682 1204.77 315.499 1204.77 317.134L1204.77 393.969C1204.77 398.146 1203.32 401.688 1200.41 404.595Z"/>
</g>
<g fill="#003559" opacity="1" stroke="none" vectornator:layerName="Text 24">
<path d="M1382.43 408.954C1378.25 408.954 1374.62 407.41 1371.53 404.321C1368.44 401.232 1366.9 397.598 1366.9 393.419L1366.9 225.534C1366.9 221.355 1368.44 217.721 1371.53 214.632C1374.62 211.544 1378.25 209.999 1382.43 209.999L1382.7 209.999C1386.88 209.999 1390.52 211.544 1393.61 214.632C1396.7 217.721 1398.24 221.355 1398.24 225.534L1398.24 381.428C1398.24 383.063 1398.97 383.88 1400.42 383.88L1477 383.88C1480.46 383.88 1483.41 385.107 1485.86 387.56C1488.31 390.013 1489.54 392.965 1489.54 396.417C1489.54 399.869 1488.31 402.822 1485.86 405.275C1483.41 407.728 1480.46 408.954 1477 408.954L1382.43 408.954Z"/>
<path d="M1542.96 408.954C1538.78 408.954 1535.15 407.41 1532.06 404.321C1528.97 401.232 1527.42 397.598 1527.42 393.419L1527.42 225.534C1527.42 221.355 1528.97 217.721 1532.06 214.632C1535.15 211.544 1538.78 209.999 1542.96 209.999L1635.08 209.999C1638.53 209.999 1641.44 211.18 1643.8 213.542C1646.16 215.904 1647.34 218.811 1647.34 222.263C1647.34 225.716 1646.16 228.623 1643.8 230.985C1641.44 233.347 1638.53 234.528 1635.08 234.528L1559.86 234.528C1558.22 234.528 1557.4 235.255 1557.4 236.708L1557.4 288.764C1557.4 290.399 1558.22 291.216 1559.86 291.216L1630.17 291.216C1633.44 291.216 1636.21 292.352 1638.48 294.623C1640.76 296.894 1641.89 299.665 1641.89 302.936C1641.89 306.206 1640.76 308.977 1638.48 311.248C1636.21 313.519 1633.44 314.655 1630.17 314.655L1559.86 314.655C1558.22 314.655 1557.4 315.473 1557.4 317.108L1557.4 381.973C1557.4 383.608 1558.22 384.425 1559.86 384.425L1635.08 384.425C1638.53 384.425 1641.44 385.606 1643.8 387.969C1646.16 390.331 1647.34 393.238 1647.34 396.69C1647.34 400.142 1646.16 403.049 1643.8 405.411C1641.44 407.773 1638.53 408.954 1635.08 408.954L1542.96 408.954Z"/>
<path d="M1714.39 404.594C1711.48 407.501 1708.03 408.954 1704.03 408.954C1700.03 408.954 1696.58 407.501 1693.67 404.594C1690.77 401.686 1689.31 398.234 1689.31 394.237L1689.31 224.716C1689.31 220.719 1690.77 217.267 1693.67 214.36C1696.58 211.453 1700.03 209.999 1704.03 209.999C1713.66 209.999 1721.02 214.269 1726.11 222.809L1803.51 358.262C1803.51 358.443 1803.69 358.534 1804.05 358.534C1804.24 358.534 1804.33 358.443 1804.33 358.262L1804.33 224.716C1804.33 220.719 1805.78 217.267 1808.69 214.36C1811.59 211.453 1815.05 209.999 1819.04 209.999C1823.04 209.999 1826.49 211.453 1829.4 214.36C1832.31 217.267 1833.76 220.719 1833.76 224.716L1833.76 394.237C1833.76 398.234 1832.31 401.686 1829.4 404.594C1826.49 407.501 1823.04 408.954 1819.04 408.954C1809.41 408.954 1802.05 404.684 1796.97 396.145L1719.29 260.692C1719.29 260.51 1719.2 260.419 1719.02 260.419C1718.84 260.419 1718.75 260.51 1718.75 260.692L1718.75 394.237C1718.75 398.234 1717.29 401.686 1714.39 404.594Z"/>
<path d="M1930.24 320.378C1909.53 313.292 1894.58 304.798 1885.41 294.896C1876.23 284.993 1871.64 273.047 1871.64 259.057C1871.64 243.067 1876.73 230.44 1886.91 221.173C1897.08 211.907 1911.07 207.274 1928.88 207.274C1945.59 207.274 1960.31 209.272 1973.03 213.27C1976.84 214.541 1979.98 216.949 1982.43 220.492C1984.88 224.035 1986.11 227.987 1986.11 232.347C1986.11 235.436 1984.75 237.798 1982.02 239.434C1979.3 241.069 1976.48 241.251 1973.57 239.979C1959.77 234.164 1945.77 231.257 1931.6 231.257C1921.79 231.257 1914.25 233.71 1908.98 238.616C1903.71 243.522 1901.08 250.335 1901.08 259.057C1901.08 266.143 1903.53 272.547 1908.44 278.271C1913.34 283.994 1920.61 288.491 1930.24 291.761C1954.22 299.756 1970.89 308.659 1980.25 318.471C1989.61 328.282 1994.29 340.728 1994.29 355.809C1994.29 374.16 1988.65 388.059 1977.39 397.507C1966.12 406.956 1949.5 411.68 1927.51 411.68C1913.16 411.68 1900.17 409.499 1888.54 405.139C1880 401.686 1875.73 394.964 1875.73 384.971C1875.73 381.882 1877.09 379.611 1879.82 378.157C1882.55 376.703 1885.27 376.703 1888 378.157C1899.26 384.153 1911.53 387.151 1924.79 387.151C1951.13 387.151 1964.31 376.703 1964.31 355.809C1964.31 347.814 1961.72 341.001 1956.54 335.368C1951.36 329.736 1942.6 324.739 1930.24 320.378Z"/>
</g>
<path d="M271.534 78.046C271.467 78.0528 271.404 78.088 271.337 78.0961C271.287 78.1022 271.24 78.0901 271.19 78.0968C270.917 78.1334 253.515 80.2582 252.397 80.3987C243.996 81.4519 237.02 82.454 229.967 83.6034C183.874 91.1124 147.771 104.357 119.967 128.904C95.835 150.208 83.5003 170.002 80.2484 193.717C77.4133 214.384 81.4181 237.508 92.528 273.302C82.307 299.286 77.469 328.429 79.5135 354.235C84.6849 419.476 125.767 478.408 184.526 507.865C278.055 554.755 391.874 516.984 438.764 423.455C470.653 359.847 464.023 284.744 423.291 227.966C419.43 222.584 411.925 221.376 406.542 225.237C401.161 229.098 399.952 236.554 403.814 241.936C439.401 291.544 445.207 357.113 417.351 412.676C376.399 494.363 276.943 527.406 195.256 486.453C143.878 460.695 107.923 409.027 103.427 352.303C101.569 328.86 106.316 301.626 116.325 278.114C120.551 275.597 128.542 272.611 141.189 268.992C145.414 267.783 162.152 263.198 165.916 262.134C193.903 254.221 210.383 247.567 221.326 237.66C231.295 228.637 238.839 216.998 244.889 202.407C249.546 191.175 253.001 179.336 257.203 161.692C257.597 160.039 259.647 151.127 259.712 150.851C267.126 119.079 271.859 105.36 280.52 94.7401C280.559 94.6925 280.58 94.6401 280.618 94.592C281.426 93.5663 282.054 92.4095 282.423 91.1381C282.428 91.1222 282.419 91.1048 282.423 91.0889C282.772 89.8666 282.89 88.5373 282.75 87.1988C282.748 87.1832 282.751 87.1652 282.75 87.1496C282.74 87.0656 282.76 86.9876 282.748 86.9035C282.657 86.22 282.316 85.6644 282.1 85.036C281.899 84.4332 281.764 83.8289 281.452 83.267C281.157 82.7459 280.739 82.3506 280.363 81.8938C279.92 81.3444 279.594 80.7387 279.026 80.2756C278.949 80.2126 278.858 80.1894 278.779 80.1291C278.603 79.9948 278.372 79.9593 278.187 79.8365C276.153 78.4752 273.843 77.8116 271.534 78.046ZM253.526 100.968C251.977 104.452 250.367 107.771 248.998 111.769C245.858 120.944 243.634 129.605 239.756 146.218C239.69 146.5 237.582 155.34 237.197 156.961C228.915 191.733 221.398 209.907 207.523 222.465C199.78 229.474 185.226 235.341 160.361 242.372C156.722 243.401 139.905 248.03 135.536 249.28C132.979 250.011 131.644 250.634 129.393 251.326C147.011 219.334 167.384 196.409 196.672 175.065C202.025 171.164 203.204 163.67 199.302 158.317C197.351 155.641 194.535 154.005 191.502 153.529C188.47 153.054 185.23 153.737 182.554 155.687C148.867 180.236 125.58 207.01 105.686 244.643C93.421 195.925 100.471 173.522 133.574 144.297C157.877 122.842 190.641 110.811 233.26 103.868C239.586 102.837 246.059 101.921 253.526 100.968ZM405.031 335.01C401.583 335.041 398.779 337.891 398.809 341.34C399.048 368.064 391.309 393.604 376.755 415.325C363.666 434.858 345.506 450.602 324.297 460.753C307.163 468.954 288.361 473.388 268.932 473.561C265.483 473.592 262.729 476.391 262.759 479.841C262.789 483.289 265.59 486.043 269.038 486.014C290.305 485.824 310.889 481.036 329.665 472.05C352.896 460.931 372.793 443.702 387.124 422.315C403.067 398.523 411.572 370.44 411.311 341.183C411.281 337.735 408.479 334.98 405.031 335.01ZM369.842 389.269C368.853 389.664 367.993 390.438 367.539 391.494C354.911 420.923 328.692 442.532 296.677 448.821C294.421 449.264 292.959 451.453 293.402 453.709C293.845 455.965 296.035 457.428 298.29 456.985C333.033 450.161 361.531 426.736 375.233 394.806C376.139 392.693 375.153 390.21 373.042 389.303C371.985 388.85 370.832 388.873 369.842 389.269Z" fill="url(#LinearGradient)" fill-rule="nonzero" opacity="1" stroke="none" vectornator:layerName="Kurve 5"/>
<path d="M438.764 423.583C470.653 359.975 464.024 284.872 423.291 228.093C419.43 222.712 411.925 221.504 406.543 225.365C401.161 229.226 399.953 236.682 403.814 242.064C439.402 291.672 445.208 357.241 417.352 412.804C376.399 494.491 438.764 423.583 438.764 423.583ZM405.032 335.138C401.584 335.169 398.78 338.019 398.81 341.467C399.048 368.191 391.309 393.732 376.756 415.452C363.666 434.986 345.507 450.73 324.298 460.881C307.163 469.082 288.362 473.515 268.932 473.689C265.484 473.719 262.729 476.519 262.759 479.968C262.79 483.417 265.59 486.171 269.039 486.141C290.306 485.952 310.89 481.163 329.666 472.177C352.897 461.059 372.794 443.83 387.125 422.443C403.068 398.651 411.573 370.568 411.312 341.311C411.281 337.863 408.48 335.108 405.032 335.138ZM369.843 389.396C368.853 389.792 367.993 390.565 367.539 391.622C354.912 421.051 328.693 442.66 296.678 448.949C294.422 449.392 292.96 451.58 293.403 453.837C293.846 456.093 296.035 457.556 298.291 457.113C333.033 450.288 361.532 426.864 375.233 394.934C376.14 392.821 375.154 390.337 373.042 389.431C371.986 388.978 370.832 389.001 369.843 389.396Z" fill="#003559" fill-rule="nonzero" opacity="1" stroke="none" vectornator:layerName="Kurve 6"/>
</g>
</svg>
